<svg xmlns="http://www.w3.org/2000/svg" width="75" height="75" baseProfile="tiny" version="1.1"><rect width="75" height="75" x="0" y="0" fill="#fff" shape-rendering="optimizeSpeed"/><rect width="2" height="2" x="8" y="8" fill="#000" shape-rendering="optimizeSpeed"/><rect width="2" height="2" x="10" y="8" fill="#000" shape-rendering="optimizeSpeed"/><rect width="2" height="2" x="12" y="8" fill="#000" shape-rendering="optimizeSpeed"/><rect width="2" height="2" x="14" y="8" fill="#000" shape-rendering="optimizeSpeed"/><rect width="2" height="2" x="16" y="8" fill="#000" shape-rendering="optimizeSpeed"/><rect width="2" height="2" x="18" y="8" fill="#000" shape-rendering="optimizeSpeed"/><rect width="2" height="2" x="20" y="8" fill="#000" shape-rendering="optimizeSpeed"/><rect width="2" height="2" x="24" y="8" fill="#000" shape-rendering="optimizeSpeed"/><rect width="2" height="2" x="26" y="8" fill="#000" shape-rendering="optimizeSpeed"/><rect width="2" height="2" x="36" y="8" fill="#000" shape-rendering="optimizeSpeed"/><rect width="2" height="2" x="44" y="8" fill="#000" shape-rendering="optimizeSpeed"/><rect width="2" height="2" x="46" y="8" fill="#000" shape-rendering="optimizeSpeed"/><rect width="2" height="2" x="48" y="8" fill="#000" shape-rendering="optimizeSpeed"/><rect width="2" height="2" x="52" y="8" fill="#000" shape-rendering="optimizeSpeed"/><rect width="2" height="2" x="54" y="8" fill="#000" shape-rendering="optimizeSpeed"/><rect width="2" height="2" x="56" y="8" fill="#000" shape-rendering="optimizeSpeed"/><rect width="2" height="2" x="58" y="8" fill="#000" shape-rendering="optimizeSpeed"/><rect width="2" height="2" x="60" y="8" fill="#000" shape-rendering="optimizeSpeed"/><rect width="2" height="2" x="62" y="8" fill="#000" shape-rendering="optimizeSpeed"/><rect width="2" height="2" x="64" y="8" fill="#000" shape-rendering="optimizeSpeed"/><rect width="2" height="2" x="8" y="10" fill="#000" shape-rendering="optimizeSpeed"/><rect width="2" height="2" x="20" y="10" fill="#000" shape-rendering="optimizeSpeed"/><rect width="2" height="2" x="34" y="10" fill="#000" shape-rendering="optimizeSpeed"/><rect width="2" height="2" x="40" y="10" fill="#000" shape-rendering="optimizeSpeed"/><rect width="2" height="2" x="42" y="10" fill="#000" shape-rendering="optimizeSpeed"/><rect width="2" height="2" x="48" y="10" fill="#000" shape-rendering="optimizeSpeed"/><rect width="2" height="2" x="52" y="10" fill="#000" shape-rendering="optimizeSpeed"/><rect width="2" height="2" x="64" y="10" fill="#000" shape-rendering="optimizeSpeed"/><rect width="2" height="2" x="8" y="12" fill="#000" shape-rendering="optimizeSpeed"/><rect width="2" height="2" x="12" y="12" fill="#000" shape-rendering="optimizeSpeed"/><rect width="2" height="2" x="14" y="12" fill="#000" shape-rendering="optimizeSpeed"/><rect width="2" height="2" x="16" y="12" fill="#000" shape-rendering="optimizeSpeed"/><rect width="2" height="2" x="20" y="12" fill="#000" shape-rendering="optimizeSpeed"/><rect width="2" height="2" x="24" y="12" fill="#000" shape-rendering="optimizeSpeed"/><rect width="2" height="2" x="30" y="12" fill="#000" shape-rendering="optimizeSpeed"/><rect width="2" height="2" x="32" y="12" fill="#000" shape-rendering="optimizeSpeed"/><rect width="2" height="2" x="34" y="12" fill="#000" shape-rendering="optimizeSpeed"/><rect width="2" height="2" x="36" y="12" fill="#000" shape-rendering="optimizeSpeed"/><rect width="2" height="2" x="40" y="12" fill="#000" shape-rendering="optimizeSpeed"/><rect width="2" height="2" x="44" y="12" fill="#000" shape-rendering="optimizeSpeed"/><rect width="2" height="2" x="48" y="12" fill="#000" shape-rendering="optimizeSpeed"/><rect width="2" height="2" x="52" y="12" fill="#000" shape-rendering="optimizeSpeed"/><rect width="2" height="2" x="56" y="12" fill="#000" shape-rendering="optimizeSpeed"/><rect width="2" height="2" x="58" y="12" fill="#000" shape-rendering="optimizeSpeed"/><rect width="2" height="2" x="60" y="12" fill="#000" shape-rendering="optimizeSpeed"/><rect width="2" height="2" x="64" y="12" fill="#000" shape-rendering="optimizeSpeed"/><rect width="2" height="2" x="8" y="14" fill="#000" shape-rendering="optimizeSpeed"/><rect width="2" height="2" x="12" y="14" fill="#000" shape-rendering="optimizeSpeed"/><rect width="2" height="2" x="14" y="14" fill="#000" shape-rendering="optimizeSpeed"/><rect width="2" height="2" x="16" y="14" fill="#000" shape-rendering="optimizeSpeed"/><rect width="2" height="2" x="20" y="14" fill="#000" shape-rendering="optimizeSpeed"/><rect width="2" height="2" x="24" y="14" fill="#000" shape-rendering="optimizeSpeed"/><rect width="2" height="2" x="26" y="14" fill="#000" shape-rendering="optimizeSpeed"/><rect width="2" height="2" x="30" y="14" fill="#000" shape-rendering="optimizeSpeed"/><rect width="2" height="2" x="38" y="14" fill="#000" shape-rendering="optimizeSpeed"/><rect width="2" height="2" x="40" y="14" fill="#000" shape-rendering="optimizeSpeed"/><rect width="2" height="2" x="42" y="14" fill="#000" shape-rendering="optimizeSpeed"/><rect width="2" height="2" x="46" y="14" fill="#000" shape-rendering="optimizeSpeed"/><rect width="2" height="2" x="52" y="14" fill="#000" shape-rendering="optimizeSpeed"/><rect width="2" height="2" x="56" y="14" fill="#000" shape-rendering="optimizeSpeed"/><rect width="2" height="2" x="58" y="14" fill="#000" shape-rendering="optimizeSpeed"/><rect width="2" height="2" x="60" y="14" fill="#000" shape-rendering="optimizeSpeed"/><rect width="2" height="2" x="64" y="14" fill="#000" shape-rendering="optimizeSpeed"/><rect width="2" height="2" x="8" y="16" fill="#000" shape-rendering="optimizeSpeed"/><rect width="2" height="2" x="12" y="16" fill="#000" shape-rendering="optimizeSpeed"/><rect width="2" height="2" x="14" y="16" fill="#000" shape-rendering="optimizeSpeed"/><rect width="2" height="2" x="16" y="16" fill="#000" shape-rendering="optimizeSpeed"/><rect width="2" height="2" x="20" y="16" fill="#000" shape-rendering="optimizeSpeed"/><rect width="2" height="2" x="24" y="16" fill="#000" shape-rendering="optimizeSpeed"/><rect width="2" height="2" x="26" y="16" fill="#000" shape-rendering="optimizeSpeed"/><rect width="2" height="2" x="28" y="16" fill="#000" shape-rendering="optimizeSpeed"/><rect width="2" height="2" x="30" y="16" fill="#000" shape-rendering="optimizeSpeed"/><rect width="2" height="2" x="34" y="16" fill="#000" shape-rendering="optimizeSpeed"/><rect width="2" height="2" x="36" y="16" fill="#000" shape-rendering="optimizeSpeed"/><rect width="2" height="2" x="38" y="16" fill="#000" shape-rendering="optimizeSpeed"/><rect width="2" height="2" x="46" y="16" fill="#000" shape-rendering="optimizeSpeed"/><rect width="2" height="2" x="48" y="16" fill="#000" shape-rendering="optimizeSpeed"/><rect width="2" height="2" x="52" y="16" fill="#000" shape-rendering="optimizeSpeed"/><rect width="2" height="2" x="56" y="16" fill="#000" shape-rendering="optimizeSpeed"/><rect width="2" height="2" x="58" y="16" fill="#000" shape-rendering="optimizeSpeed"/><rect width="2" height="2" x="60" y="16" fill="#000" shape-rendering="optimizeSpeed"/><rect width="2" height="2" x="64" y="16" fill="#000" shape-rendering="optimizeSpeed"/><rect width="2" height="2" x="8" y="18" fill="#000" shape-rendering="optimizeSpeed"/><rect width="2" height="2" x="20" y="18" fill="#000" shape-rendering="optimizeSpeed"/><rect width="2" height="2" x="26" y="18" fill="#000" shape-rendering="optimizeSpeed"/><rect width="2" height="2" x="32" y="18" fill="#000" shape-rendering="optimizeSpeed"/><rect width="2" height="2" x="36" y="18" fill="#000" shape-rendering="optimizeSpeed"/><rect width="2" height="2" x="40" y="18" fill="#000" shape-rendering="optimizeSpeed"/><rect width="2" height="2" x="46" y="18" fill="#000" shape-rendering="optimizeSpeed"/><rect width="2" height="2" x="52" y="18" fill="#000" shape-rendering="optimizeSpeed"/><rect width="2" height="2" x="64" y="18" fill="#000" shape-rendering="optimizeSpeed"/><rect width="2" height="2" x="8" y="20" fill="#000" shape-rendering="optimizeSpeed"/><rect width="2" height="2" x="10" y="20" fill="#000" shape-rendering="optimizeSpeed"/><rect width="2" height="2" x="12" y="20" fill="#000" shape-rendering="optimizeSpeed"/><rect width="2" height="2" x="14" y="20" fill="#000" shape-rendering="optimizeSpeed"/><rect width="2" height="2" x="16" y="20" fill="#000" shape-rendering="optimizeSpeed"/><rect width="2" height="2" x="18" y="20" fill="#000" shape-rendering="optimizeSpeed"/><rect width="2" height="2" x="20" y="20" fill="#000" shape-rendering="optimizeSpeed"/><rect width="2" height="2" x="24" y="20" fill="#000" shape-rendering="optimizeSpeed"/><rect width="2" height="2" x="28" y="20" fill="#000" shape-rendering="optimizeSpeed"/><rect width="2" height="2" x="32" y="20" fill="#000" shape-rendering="optimizeSpeed"/><rect width="2" height="2" x="36" y="20" fill="#000" shape-rendering="optimizeSpeed"/><rect width="2" height="2" x="40" y="20" fill="#000" shape-rendering="optimizeSpeed"/><rect width="2" height="2" x="44" y="20" fill="#000" shape-rendering="optimizeSpeed"/><rect width="2" height="2" x="48" y="20" fill="#000" shape-rendering="optimizeSpeed"/><rect width="2" height="2" x="52" y="20" fill="#000" shape-rendering="optimizeSpeed"/><rect width="2" height="2" x="54" y="20" fill="#000" shape-rendering="optimizeSpeed"/><rect width="2" height="2" x="56" y="20" fill="#000" shape-rendering="optimizeSpeed"/><rect width="2" height="2" x="58" y="20" fill="#000" shape-rendering="optimizeSpeed"/><rect width="2" height="2" x="60" y="20" fill="#000" shape-rendering="optimizeSpeed"/><rect width="2" height="2" x="62" y="20" fill="#000" shape-rendering="optimizeSpeed"/><rect width="2" height="2" x="64" y="20" fill="#000" shape-rendering="optimizeSpeed"/><rect width="2" height="2" x="26" y="22" fill="#000" shape-rendering="optimizeSpeed"/><rect width="2" height="2" x="30" y="22" fill="#000" shape-rendering="optimizeSpeed"/><rect width="2" height="2" x="34" y="22" fill="#000" shape-rendering="optimizeSpeed"/><rect width="2" height="2" x="36" y="22" fill="#000" shape-rendering="optimizeSpeed"/><rect width="2" height="2" x="42" y="22" fill="#000" shape-rendering="optimizeSpeed"/><rect width="2" height="2" x="44" y="22" fill="#000" shape-rendering="optimizeSpeed"/><rect width="2" height="2" x="46" y="22" fill="#000" shape-rendering="optimizeSpeed"/><rect width="2" height="2" x="8" y="24" fill="#000" shape-rendering="optimizeSpeed"/><rect width="2" height="2" x="10" y="24" fill="#000" shape-rendering="optimizeSpeed"/><rect width="2" height="2" x="12" y="24" fill="#000" shape-rendering="optimizeSpeed"/><rect width="2" height="2" x="14" y="24" fill="#000" shape-rendering="optimizeSpeed"/><rect width="2" height="2" x="20" y="24" fill="#000" shape-rendering="optimizeSpeed"/><rect width="2" height="2" x="24" y="24" fill="#000" shape-rendering="optimizeSpeed"/><rect width="2" height="2" x="34" y="24" fill="#000" shape-rendering="optimizeSpeed"/><rect width="2" height="2" x="36" y="24" fill="#000" shape-rendering="optimizeSpeed"/><rect width="2" height="2" x="38" y="24" fill="#000" shape-rendering="optimizeSpeed"/><rect width="2" height="2" x="42" y="24" fill="#000" shape-rendering="optimizeSpeed"/><rect width="2" height="2" x="50" y="24" fill="#000" shape-rendering="optimizeSpeed"/><rect width="2" height="2" x="56" y="24" fill="#000" shape-rendering="optimizeSpeed"/><rect width="2" height="2" x="58" y="24" fill="#000" shape-rendering="optimizeSpeed"/><rect width="2" height="2" x="60" y="24" fill="#000" shape-rendering="optimizeSpeed"/><rect width="2" height="2" x="64" y="24" fill="#000" shape-rendering="optimizeSpeed"/><rect width="2" height="2" x="8" y="26" fill="#000" shape-rendering="optimizeSpeed"/><rect width="2" height="2" x="12" y="26" fill="#000" shape-rendering="optimizeSpeed"/><rect width="2" height="2" x="14" y="26" fill="#000" shape-rendering="optimizeSpeed"/><rect width="2" height="2" x="16" y="26" fill="#000" shape-rendering="optimizeSpeed"/><rect width="2" height="2" x="18" y="26" fill="#000" shape-rendering="optimizeSpeed"/><rect width="2" height="2" x="22" y="26" fill="#000" shape-rendering="optimizeSpeed"/><rect width="2" height="2" x="26" y="26" fill="#000" shape-rendering="optimizeSpeed"/><rect width="2" height="2" x="42" y="26" fill="#000" shape-rendering="optimizeSpeed"/><rect width="2" height="2" x="44" y="26" fill="#000" shape-rendering="optimizeSpeed"/><rect width="2" height="2" x="46" y="26" fill="#000" shape-rendering="optimizeSpeed"/><rect width="2" height="2" x="48" y="26" fill="#000" shape-rendering="optimizeSpeed"/><rect width="2" height="2" x="52" y="26" fill="#000" shape-rendering="optimizeSpeed"/><rect width="2" height="2" x="54" y="26" fill="#000" shape-rendering="optimizeSpeed"/><rect width="2" height="2" x="56" y="26" fill="#000" shape-rendering="optimizeSpeed"/><rect width="2" height="2" x="64" y="26" fill="#000" shape-rendering="optimizeSpeed"/><rect width="2" height="2" x="12" y="28" fill="#000" shape-rendering="optimizeSpeed"/><rect width="2" height="2" x="20" y="28" fill="#000" shape-rendering="optimizeSpeed"/><rect width="2" height="2" x="36" y="28" fill="#000" shape-rendering="optimizeSpeed"/><rect width="2" height="2" x="44" y="28" fill="#000" shape-rendering="optimizeSpeed"/><rect width="2" height="2" x="50" y="28" fill="#000" shape-rendering="optimizeSpeed"/><rect width="2" height="2" x="56" y="28" fill="#000" shape-rendering="optimizeSpeed"/><rect width="2" height="2" x="60" y="28" fill="#000" shape-rendering="optimizeSpeed"/><rect width="2" height="2" x="62" y="28" fill="#000" shape-rendering="optimizeSpeed"/><rect width="2" height="2" x="8" y="30" fill="#000" shape-rendering="optimizeSpeed"/><rect width="2" height="2" x="10" y="30" fill="#000" shape-rendering="optimizeSpeed"/><rect width="2" height="2" x="12" y="30" fill="#000" shape-rendering="optimizeSpeed"/><rect width="2" height="2" x="14" y="30" fill="#000" shape-rendering="optimizeSpeed"/><rect width="2" height="2" x="16" y="30" fill="#000" shape-rendering="optimizeSpeed"/><rect width="2" height="2" x="18" y="30" fill="#000" shape-rendering="optimizeSpeed"/><rect width="2" height="2" x="22" y="30" fill="#000" shape-rendering="optimizeSpeed"/><rect width="2" height="2" x="30" y="30" fill="#000" shape-rendering="optimizeSpeed"/><rect width="2" height="2" x="32" y="30" fill="#000" shape-rendering="optimizeSpeed"/><rect width="2" height="2" x="34" y="30" fill="#000" shape-rendering="optimizeSpeed"/><rect width="2" height="2" x="36" y="30" fill="#000" shape-rendering="optimizeSpeed"/><rect width="2" height="2" x="38" y="30" fill="#000" shape-rendering="optimizeSpeed"/><rect width="2" height="2" x="44" y="30" fill="#000" shape-rendering="optimizeSpeed"/><rect width="2" height="2" x="48" y="30" fill="#000" shape-rendering="optimizeSpeed"/><rect width="2" height="2" x="50" y="30" fill="#000" shape-rendering="optimizeSpeed"/><rect width="2" height="2" x="52" y="30" fill="#000" shape-rendering="optimizeSpeed"/><rect width="2" height="2" x="64" y="30" fill="#000" shape-rendering="optimizeSpeed"/><rect width="2" height="2" x="12" y="32" fill="#000" shape-rendering="optimizeSpeed"/><rect width="2" height="2" x="14" y="32" fill="#000" shape-rendering="optimizeSpeed"/><rect width="2" height="2" x="20" y="32" fill="#000" shape-rendering="optimizeSpeed"/><rect width="2" height="2" x="22" y="32" fill="#000" shape-rendering="optimizeSpeed"/><rect width="2" height="2" x="24" y="32" fill="#000" shape-rendering="optimizeSpeed"/><rect width="2" height="2" x="26" y="32" fill="#000" shape-rendering="optimizeSpeed"/><rect width="2" height="2" x="30" y="32" fill="#000" shape-rendering="optimizeSpeed"/><rect width="2" height="2" x="38" y="32" fill="#000" shape-rendering="optimizeSpeed"/><rect width="2" height="2" x="40" y="32" fill="#000" shape-rendering="optimizeSpeed"/><rect width="2" height="2" x="42" y="32" fill="#000" shape-rendering="optimizeSpeed"/><rect width="2" height="2" x="46" y="32" fill="#000" shape-rendering="optimizeSpeed"/><rect width="2" height="2" x="58" y="32" fill="#000" shape-rendering="optimizeSpeed"/><rect width="2" height="2" x="60" y="32" fill="#000" shape-rendering="optimizeSpeed"/><rect width="2" height="2" x="8" y="34" fill="#000" shape-rendering="optimizeSpeed"/><rect width="2" height="2" x="12" y="34" fill="#000" shape-rendering="optimizeSpeed"/><rect width="2" height="2" x="18" y="34" fill="#000" shape-rendering="optimizeSpeed"/><rect width="2" height="2" x="26" y="34" fill="#000" shape-rendering="optimizeSpeed"/><rect width="2" height="2" x="28" y="34" fill="#000" shape-rendering="optimizeSpeed"/><rect width="2" height="2" x="30" y="34" fill="#000" shape-rendering="optimizeSpeed"/><rect width="2" height="2" x="34" y="34" fill="#000" shape-rendering="optimizeSpeed"/><rect width="2" height="2" x="38" y="34" fill="#000" shape-rendering="optimizeSpeed"/><rect width="2" height="2" x="42" y="34" fill="#000" shape-rendering="optimizeSpeed"/><rect width="2" height="2" x="44" y="34" fill="#000" shape-rendering="optimizeSpeed"/><rect width="2" height="2" x="46" y="34" fill="#000" shape-rendering="optimizeSpeed"/><rect width="2" height="2" x="50" y="34" fill="#000" shape-rendering="optimizeSpeed"/><rect width="2" height="2" x="52" y="34" fill="#000" shape-rendering="optimizeSpeed"/><rect width="2" height="2" x="60" y="34" fill="#000" shape-rendering="optimizeSpeed"/><rect width="2" height="2" x="62" y="34" fill="#000" shape-rendering="optimizeSpeed"/><rect width="2" height="2" x="64" y="34" fill="#000" shape-rendering="optimizeSpeed"/><rect width="2" height="2" x="8" y="36" fill="#000" shape-rendering="optimizeSpeed"/><rect width="2" height="2" x="10" y="36" fill="#000" shape-rendering="optimizeSpeed"/><rect width="2" height="2" x="14" y="36" fill="#000" shape-rendering="optimizeSpeed"/><rect width="2" height="2" x="16" y="36" fill="#000" shape-rendering="optimizeSpeed"/><rect width="2" height="2" x="20" y="36" fill="#000" shape-rendering="optimizeSpeed"/><rect width="2" height="2" x="22" y="36" fill="#000" shape-rendering="optimizeSpeed"/><rect width="2" height="2" x="24" y="36" fill="#000" shape-rendering="optimizeSpeed"/><rect width="2" height="2" x="26" y="36" fill="#000" shape-rendering="optimizeSpeed"/><rect width="2" height="2" x="28" y="36" fill="#000" shape-rendering="optimizeSpeed"/><rect width="2" height="2" x="32" y="36" fill="#000" shape-rendering="optimizeSpeed"/><rect width="2" height="2" x="36" y="36" fill="#000" shape-rendering="optimizeSpeed"/><rect width="2" height="2" x="44" y="36" fill="#000" shape-rendering="optimizeSpeed"/><rect width="2" height="2" x="46" y="36" fill="#000" shape-rendering="optimizeSpeed"/><rect width="2" height="2" x="48" y="36" fill="#000" shape-rendering="optimizeSpeed"/><rect width="2" height="2" x="52" y="36" fill="#000" shape-rendering="optimizeSpeed"/><rect width="2" height="2" x="54" y="36" fill="#000" shape-rendering="optimizeSpeed"/><rect width="2" height="2" x="56" y="36" fill="#000" shape-rendering="optimizeSpeed"/><rect width="2" height="2" x="60" y="36" fill="#000" shape-rendering="optimizeSpeed"/><rect width="2" height="2" x="62" y="36" fill="#000" shape-rendering="optimizeSpeed"/><rect width="2" height="2" x="64" y="36" fill="#000" shape-rendering="optimizeSpeed"/><rect width="2" height="2" x="8" y="38" fill="#000" shape-rendering="optimizeSpeed"/><rect width="2" height="2" x="10" y="38" fill="#000" shape-rendering="optimizeSpeed"/><rect width="2" height="2" x="16" y="38" fill="#000" shape-rendering="optimizeSpeed"/><rect width="2" height="2" x="18" y="38" fill="#000" shape-rendering="optimizeSpeed"/><rect width="2" height="2" x="22" y="38" fill="#000" shape-rendering="optimizeSpeed"/><rect width="2" height="2" x="24" y="38" fill="#000" shape-rendering="optimizeSpeed"/><rect width="2" height="2" x="32" y="38" fill="#000" shape-rendering="optimizeSpeed"/><rect width="2" height="2" x="34" y="38" fill="#000" shape-rendering="optimizeSpeed"/><rect width="2" height="2" x="40" y="38" fill="#000" shape-rendering="optimizeSpeed"/><rect width="2" height="2" x="44" y="38" fill="#000" shape-rendering="optimizeSpeed"/><rect width="2" height="2" x="48" y="38" fill="#000" shape-rendering="optimizeSpeed"/><rect width="2" height="2" x="52" y="38" fill="#000" shape-rendering="optimizeSpeed"/><rect width="2" height="2" x="56" y="38" fill="#000" shape-rendering="optimizeSpeed"/><rect width="2" height="2" x="62" y="38" fill="#000" shape-rendering="optimizeSpeed"/><rect width="2" height="2" x="10" y="40" fill="#000" shape-rendering="optimizeSpeed"/><rect width="2" height="2" x="16" y="40" fill="#000" shape-rendering="optimizeSpeed"/><rect width="2" height="2" x="18" y="40" fill="#000" shape-rendering="optimizeSpeed"/><rect width="2" height="2" x="20" y="40" fill="#000" shape-rendering="optimizeSpeed"/><rect width="2" height="2" x="24" y="40" fill="#000" shape-rendering="optimizeSpeed"/><rect width="2" height="2" x="30" y="40" fill="#000" shape-rendering="optimizeSpeed"/><rect width="2" height="2" x="38" y="40" fill="#000" shape-rendering="optimizeSpeed"/><rect width="2" height="2" x="50" y="40" fill="#000" shape-rendering="optimizeSpeed"/><rect width="2" height="2" x="56" y="40" fill="#000" shape-rendering="optimizeSpeed"/><rect width="2" height="2" x="58" y="40" fill="#000" shape-rendering="optimizeSpeed"/><rect width="2" height="2" x="62" y="40" fill="#000" shape-rendering="optimizeSpeed"/><rect width="2" height="2" x="12" y="42" fill="#000" shape-rendering="optimizeSpeed"/><rect width="2" height="2" x="14" y="42" fill="#000" shape-rendering="optimizeSpeed"/><rect width="2" height="2" x="24" y="42" fill="#000" shape-rendering="optimizeSpeed"/><rect width="2" height="2" x="28" y="42" fill="#000" shape-rendering="optimizeSpeed"/><rect width="2" height="2" x="32" y="42" fill="#000" shape-rendering="optimizeSpeed"/><rect width="2" height="2" x="34" y="42" fill="#000" shape-rendering="optimizeSpeed"/><rect width="2" height="2" x="38" y="42" fill="#000" shape-rendering="optimizeSpeed"/><rect width="2" height="2" x="40" y="42" fill="#000" shape-rendering="optimizeSpeed"/><rect width="2" height="2" x="42" y="42" fill="#000" shape-rendering="optimizeSpeed"/><rect width="2" height="2" x="48" y="42" fill="#000" shape-rendering="optimizeSpeed"/><rect width="2" height="2" x="50" y="42" fill="#000" shape-rendering="optimizeSpeed"/><rect width="2" height="2" x="54" y="42" fill="#000" shape-rendering="optimizeSpeed"/><rect width="2" height="2" x="58" y="42" fill="#000" shape-rendering="optimizeSpeed"/><rect width="2" height="2" x="60" y="42" fill="#000" shape-rendering="optimizeSpeed"/><rect width="2" height="2" x="62" y="42" fill="#000" shape-rendering="optimizeSpeed"/><rect width="2" height="2" x="8" y="44" fill="#000" shape-rendering="optimizeSpeed"/><rect width="2" height="2" x="18" y="44" fill="#000" shape-rendering="optimizeSpeed"/><rect width="2" height="2" x="20" y="44" fill="#000" shape-rendering="optimizeSpeed"/><rect width="2" height="2" x="22" y="44" fill="#000" shape-rendering="optimizeSpeed"/><rect width="2" height="2" x="24" y="44" fill="#000" shape-rendering="optimizeSpeed"/><rect width="2" height="2" x="26" y="44" fill="#000" shape-rendering="optimizeSpeed"/><rect width="2" height="2" x="28" y="44" fill="#000" shape-rendering="optimizeSpeed"/><rect width="2" height="2" x="30" y="44" fill="#000" shape-rendering="optimizeSpeed"/><rect width="2" height="2" x="32" y="44" fill="#000" shape-rendering="optimizeSpeed"/><rect width="2" height="2" x="38" y="44" fill="#000" shape-rendering="optimizeSpeed"/><rect width="2" height="2" x="40" y="44" fill="#000" shape-rendering="optimizeSpeed"/><rect width="2" height="2" x="42" y="44" fill="#000" shape-rendering="optimizeSpeed"/><rect width="2" height="2" x="50" y="44" fill="#000" shape-rendering="optimizeSpeed"/><rect width="2" height="2" x="54" y="44" fill="#000" shape-rendering="optimizeSpeed"/><rect width="2" height="2" x="56" y="44" fill="#000" shape-rendering="optimizeSpeed"/><rect width="2" height="2" x="60" y="44" fill="#000" shape-rendering="optimizeSpeed"/><rect width="2" height="2" x="12" y="46" fill="#000" shape-rendering="optimizeSpeed"/><rect width="2" height="2" x="14" y="46" fill="#000" shape-rendering="optimizeSpeed"/><rect width="2" height="2" x="16" y="46" fill="#000" shape-rendering="optimizeSpeed"/><rect width="2" height="2" x="24" y="46" fill="#000" shape-rendering="optimizeSpeed"/><rect width="2" height="2" x="26" y="46" fill="#000" shape-rendering="optimizeSpeed"/><rect width="2" height="2" x="32" y="46" fill="#000" shape-rendering="optimizeSpeed"/><rect width="2" height="2" x="38" y="46" fill="#000" shape-rendering="optimizeSpeed"/><rect width="2" height="2" x="42" y="46" fill="#000" shape-rendering="optimizeSpeed"/><rect width="2" height="2" x="44" y="46" fill="#000" shape-rendering="optimizeSpeed"/><rect width="2" height="2" x="50" y="46" fill="#000" shape-rendering="optimizeSpeed"/><rect width="2" height="2" x="52" y="46" fill="#000" shape-rendering="optimizeSpeed"/><rect width="2" height="2" x="54" y="46" fill="#000" shape-rendering="optimizeSpeed"/><rect width="2" height="2" x="56" y="46" fill="#000" shape-rendering="optimizeSpeed"/><rect width="2" height="2" x="60" y="46" fill="#000" shape-rendering="optimizeSpeed"/><rect width="2" height="2" x="10" y="48" fill="#000" shape-rendering="optimizeSpeed"/><rect width="2" height="2" x="12" y="48" fill="#000" shape-rendering="optimizeSpeed"/><rect width="2" height="2" x="14" y="48" fill="#000" shape-rendering="optimizeSpeed"/><rect width="2" height="2" x="18" y="48" fill="#000" shape-rendering="optimizeSpeed"/><rect width="2" height="2" x="20" y="48" fill="#000" shape-rendering="optimizeSpeed"/><rect width="2" height="2" x="24" y="48" fill="#000" shape-rendering="optimizeSpeed"/><rect width="2" height="2" x="26" y="48" fill="#000" shape-rendering="optimizeSpeed"/><rect width="2" height="2" x="30" y="48" fill="#000" shape-rendering="optimizeSpeed"/><rect width="2" height="2" x="32" y="48" fill="#000" shape-rendering="optimizeSpeed"/><rect width="2" height="2" x="34" y="48" fill="#000" shape-rendering="optimizeSpeed"/><rect width="2" height="2" x="40" y="48" fill="#000" shape-rendering="optimizeSpeed"/><rect width="2" height="2" x="42" y="48" fill="#000" shape-rendering="optimizeSpeed"/><rect width="2" height="2" x="44" y="48" fill="#000" shape-rendering="optimizeSpeed"/><rect width="2" height="2" x="48" y="48" fill="#000" shape-rendering="optimizeSpeed"/><rect width="2" height="2" x="50" y="48" fill="#000" shape-rendering="optimizeSpeed"/><rect width="2" height="2" x="52" y="48" fill="#000" shape-rendering="optimizeSpeed"/><rect width="2" height="2" x="54" y="48" fill="#000" shape-rendering="optimizeSpeed"/><rect width="2" height="2" x="56" y="48" fill="#000" shape-rendering="optimizeSpeed"/><rect width="2" height="2" x="58" y="48" fill="#000" shape-rendering="optimizeSpeed"/><rect width="2" height="2" x="60" y="48" fill="#000" shape-rendering="optimizeSpeed"/><rect width="2" height="2" x="24" y="50" fill="#000" shape-rendering="optimizeSpeed"/><rect width="2" height="2" x="26" y="50" fill="#000" shape-rendering="optimizeSpeed"/><rect width="2" height="2" x="28" y="50" fill="#000" shape-rendering="optimizeSpeed"/><rect width="2" height="2" x="32" y="50" fill="#000" shape-rendering="optimizeSpeed"/><rect width="2" height="2" x="34" y="50" fill="#000" shape-rendering="optimizeSpeed"/><rect width="2" height="2" x="36" y="50" fill="#000" shape-rendering="optimizeSpeed"/><rect width="2" height="2" x="40" y="50" fill="#000" shape-rendering="optimizeSpeed"/><rect width="2" height="2" x="48" y="50" fill="#000" shape-rendering="optimizeSpeed"/><rect width="2" height="2" x="56" y="50" fill="#000" shape-rendering="optimizeSpeed"/><rect width="2" height="2" x="58" y="50" fill="#000" shape-rendering="optimizeSpeed"/><rect width="2" height="2" x="60" y="50" fill="#000" shape-rendering="optimizeSpeed"/><rect width="2" height="2" x="62" y="50" fill="#000" shape-rendering="optimizeSpeed"/><rect width="2" height="2" x="64" y="50" fill="#000" shape-rendering="optimizeSpeed"/><rect width="2" height="2" x="8" y="52" fill="#000" shape-rendering="optimizeSpeed"/><rect width="2" height="2" x="10" y="52" fill="#000" shape-rendering="optimizeSpeed"/><rect width="2" height="2" x="12" y="52" fill="#000" shape-rendering="optimizeSpeed"/><rect width="2" height="2" x="14" y="52" fill="#000" shape-rendering="optimizeSpeed"/><rect width="2" height="2" x="16" y="52" fill="#000" shape-rendering="optimizeSpeed"/><rect width="2" height="2" x="18" y="52" fill="#000" shape-rendering="optimizeSpeed"/><rect width="2" height="2" x="20" y="52" fill="#000" shape-rendering="optimizeSpeed"/><rect width="2" height="2" x="26" y="52" fill="#000" shape-rendering="optimizeSpeed"/><rect width="2" height="2" x="30" y="52" fill="#000" shape-rendering="optimizeSpeed"/><rect width="2" height="2" x="32" y="52" fill="#000" shape-rendering="optimizeSpeed"/><rect width="2" height="2" x="34" y="52" fill="#000" shape-rendering="optimizeSpeed"/><rect width="2" height="2" x="40" y="52" fill="#000" shape-rendering="optimizeSpeed"/><rect width="2" height="2" x="42" y="52" fill="#000" shape-rendering="optimizeSpeed"/><rect width="2" height="2" x="44" y="52" fill="#000" shape-rendering="optimizeSpeed"/><rect width="2" height="2" x="46" y="52" fill="#000" shape-rendering="optimizeSpeed"/><rect width="2" height="2" x="48" y="52" fill="#000" shape-rendering="optimizeSpeed"/><rect width="2" height="2" x="52" y="52" fill="#000" shape-rendering="optimizeSpeed"/><rect width="2" height="2" x="56" y="52" fill="#000" shape-rendering="optimizeSpeed"/><rect width="2" height="2" x="58" y="52" fill="#000" shape-rendering="optimizeSpeed"/><rect width="2" height="2" x="62" y="52" fill="#000" shape-rendering="optimizeSpeed"/><rect width="2" height="2" x="8" y="54" fill="#000" shape-rendering="optimizeSpeed"/><rect width="2" height="2" x="20" y="54" fill="#000" shape-rendering="optimizeSpeed"/><rect width="2" height="2" x="40" y="54" fill="#000" shape-rendering="optimizeSpeed"/><rect width="2" height="2" x="48" y="54" fill="#000" shape-rendering="optimizeSpeed"/><rect width="2" height="2" x="56" y="54" fill="#000" shape-rendering="optimizeSpeed"/><rect width="2" height="2" x="58" y="54" fill="#000" shape-rendering="optimizeSpeed"/><rect width="2" height="2" x="62" y="54" fill="#000" shape-rendering="optimizeSpeed"/><rect width="2" height="2" x="64" y="54" fill="#000" shape-rendering="optimizeSpeed"/><rect width="2" height="2" x="8" y="56" fill="#000" shape-rendering="optimizeSpeed"/><rect width="2" height="2" x="12" y="56" fill="#000" shape-rendering="optimizeSpeed"/><rect width="2" height="2" x="14" y="56" fill="#000" shape-rendering="optimizeSpeed"/><rect width="2" height="2" x="16" y="56" fill="#000" shape-rendering="optimizeSpeed"/><rect width="2" height="2" x="20" y="56" fill="#000" shape-rendering="optimizeSpeed"/><rect width="2" height="2" x="28" y="56" fill="#000" shape-rendering="optimizeSpeed"/><rect width="2" height="2" x="32" y="56" fill="#000" shape-rendering="optimizeSpeed"/><rect width="2" height="2" x="36" y="56" fill="#000" shape-rendering="optimizeSpeed"/><rect width="2" height="2" x="42" y="56" fill="#000" shape-rendering="optimizeSpeed"/><rect width="2" height="2" x="48" y="56" fill="#000" shape-rendering="optimizeSpeed"/><rect width="2" height="2" x="50" y="56" fill="#000" shape-rendering="optimizeSpeed"/><rect width="2" height="2" x="52" y="56" fill="#000" shape-rendering="optimizeSpeed"/><rect width="2" height="2" x="54" y="56" fill="#000" shape-rendering="optimizeSpeed"/><rect width="2" height="2" x="56" y="56" fill="#000" shape-rendering="optimizeSpeed"/><rect width="2" height="2" x="60" y="56" fill="#000" shape-rendering="optimizeSpeed"/><rect width="2" height="2" x="8" y="58" fill="#000" shape-rendering="optimizeSpeed"/><rect width="2" height="2" x="12" y="58" fill="#000" shape-rendering="optimizeSpeed"/><rect width="2" height="2" x="14" y="58" fill="#000" shape-rendering="optimizeSpeed"/><rect width="2" height="2" x="16" y="58" fill="#000" shape-rendering="optimizeSpeed"/><rect width="2" height="2" x="20" y="58" fill="#000" shape-rendering="optimizeSpeed"/><rect width="2" height="2" x="24" y="58" fill="#000" shape-rendering="optimizeSpeed"/><rect width="2" height="2" x="28" y="58" fill="#000" shape-rendering="optimizeSpeed"/><rect width="2" height="2" x="30" y="58" fill="#000" shape-rendering="optimizeSpeed"/><rect width="2" height="2" x="32" y="58" fill="#000" shape-rendering="optimizeSpeed"/><rect width="2" height="2" x="36" y="58" fill="#000" shape-rendering="optimizeSpeed"/><rect width="2" height="2" x="38" y="58" fill="#000" shape-rendering="optimizeSpeed"/><rect width="2" height="2" x="40" y="58" fill="#000" shape-rendering="optimizeSpeed"/><rect width="2" height="2" x="46" y="58" fill="#000" shape-rendering="optimizeSpeed"/><rect width="2" height="2" x="54" y="58" fill="#000" shape-rendering="optimizeSpeed"/><rect width="2" height="2" x="56" y="58" fill="#000" shape-rendering="optimizeSpeed"/><rect width="2" height="2" x="58" y="58" fill="#000" shape-rendering="optimizeSpeed"/><rect width="2" height="2" x="64" y="58" fill="#000" shape-rendering="optimizeSpeed"/><rect width="2" height="2" x="8" y="60" fill="#000" shape-rendering="optimizeSpeed"/><rect width="2" height="2" x="12" y="60" fill="#000" shape-rendering="optimizeSpeed"/><rect width="2" height="2" x="14" y="60" fill="#000" shape-rendering="optimizeSpeed"/><rect width="2" height="2" x="16" y="60" fill="#000" shape-rendering="optimizeSpeed"/><rect width="2" height="2" x="20" y="60" fill="#000" shape-rendering="optimizeSpeed"/><rect width="2" height="2" x="24" y="60" fill="#000" shape-rendering="optimizeSpeed"/><rect width="2" height="2" x="26" y="60" fill="#000" shape-rendering="optimizeSpeed"/><rect width="2" height="2" x="28" y="60" fill="#000" shape-rendering="optimizeSpeed"/><rect width="2" height="2" x="30" y="60" fill="#000" shape-rendering="optimizeSpeed"/><rect width="2" height="2" x="34" y="60" fill="#000" shape-rendering="optimizeSpeed"/><rect width="2" height="2" x="40" y="60" fill="#000" shape-rendering="optimizeSpeed"/><rect width="2" height="2" x="42" y="60" fill="#000" shape-rendering="optimizeSpeed"/><rect width="2" height="2" x="44" y="60" fill="#000" shape-rendering="optimizeSpeed"/><rect width="2" height="2" x="54" y="60" fill="#000" shape-rendering="optimizeSpeed"/><rect width="2" height="2" x="60" y="60" fill="#000" shape-rendering="optimizeSpeed"/><rect width="2" height="2" x="64" y="60" fill="#000" shape-rendering="optimizeSpeed"/><rect width="2" height="2" x="8" y="62" fill="#000" shape-rendering="optimizeSpeed"/><rect width="2" height="2" x="20" y="62" fill="#000" shape-rendering="optimizeSpeed"/><rect width="2" height="2" x="24" y="62" fill="#000" shape-rendering="optimizeSpeed"/><rect width="2" height="2" x="26" y="62" fill="#000" shape-rendering="optimizeSpeed"/><rect width="2" height="2" x="28" y="62" fill="#000" shape-rendering="optimizeSpeed"/><rect width="2" height="2" x="30" y="62" fill="#000" shape-rendering="optimizeSpeed"/><rect width="2" height="2" x="36" y="62" fill="#000" shape-rendering="optimizeSpeed"/><rect width="2" height="2" x="38" y="62" fill="#000" shape-rendering="optimizeSpeed"/><rect width="2" height="2" x="48" y="62" fill="#000" shape-rendering="optimizeSpeed"/><rect width="2" height="2" x="52" y="62" fill="#000" shape-rendering="optimizeSpeed"/><rect width="2" height="2" x="56" y="62" fill="#000" shape-rendering="optimizeSpeed"/><rect width="2" height="2" x="58" y="62" fill="#000" shape-rendering="optimizeSpeed"/><rect width="2" height="2" x="62" y="62" fill="#000" shape-rendering="optimizeSpeed"/><rect width="2" height="2" x="8" y="64" fill="#000" shape-rendering="optimizeSpeed"/><rect width="2" height="2" x="10" y="64" fill="#000" shape-rendering="optimizeSpeed"/><rect width="2" height="2" x="12" y="64" fill="#000" shape-rendering="optimizeSpeed"/><rect width="2" height="2" x="14" y="64" fill="#000" shape-rendering="optimizeSpeed"/><rect width="2" height="2" x="16" y="64" fill="#000" shape-rendering="optimizeSpeed"/><rect width="2" height="2" x="18" y="64" fill="#000" shape-rendering="optimizeSpeed"/><rect width="2" height="2" x="20" y="64" fill="#000" shape-rendering="optimizeSpeed"/><rect width="2" height="2" x="24" y="64" fill="#000" shape-rendering="optimizeSpeed"/><rect width="2" height="2" x="26" y="64" fill="#000" shape-rendering="optimizeSpeed"/><rect width="2" height="2" x="32" y="64" fill="#000" shape-rendering="optimizeSpeed"/><rect width="2" height="2" x="36" y="64" fill="#000" shape-rendering="optimizeSpeed"/><rect width="2" height="2" x="40" y="64" fill="#000" shape-rendering="optimizeSpeed"/><rect width="2" height="2" x="44" y="64" fill="#000" shape-rendering="optimizeSpeed"/><rect width="2" height="2" x="46" y="64" fill="#000" shape-rendering="optimizeSpeed"/><rect width="2" height="2" x="48" y="64" fill="#000" shape-rendering="optimizeSpeed"/><rect width="2" height="2" x="52" y="64" fill="#000" shape-rendering="optimizeSpeed"/><rect width="2" height="2" x="62" y="64" fill="#000" shape-rendering="optimizeSpeed"/></svg>